<svg xmlns="http://www.w3.org/2000/svg" xmlns:xlink="http://www.w3.org/1999/xlink" width="1080" zoomAndPan="magnify" viewBox="0 0 810 809.999993" height="1080" preserveAspectRatio="xMidYMid meet" version="1.0"><defs><g/></defs><rect x="-81" width="972" fill="#ffffff" y="-80.999999" height="971.999992" fill-opacity="1"/><rect x="-81" width="972" fill="#ffffff" y="-80.999999" height="971.999992" fill-opacity="1"/><g fill="#000000" fill-opacity="1"><g transform="translate(66.193843, 500.411832)"><g><path d="M 92.828125 2.640625 C 83.429688 2.640625 74.210938 1.453125 65.171875 -0.921875 C 56.128906 -3.296875 47.878906 -6.851562 40.421875 -11.59375 C 32.960938 -16.332031 26.796875 -22.253906 21.921875 -29.359375 C 17.046875 -36.472656 14.128906 -44.8125 13.171875 -54.375 L 52.53125 -54.375 C 53.851562 -48.582031 56.359375 -43.710938 60.046875 -39.765625 C 63.734375 -35.816406 68.382812 -32.785156 74 -30.671875 C 79.613281 -28.566406 85.847656 -27.515625 92.703125 -27.515625 C 99.722656 -27.515625 106.128906 -28.390625 111.921875 -30.140625 C 117.710938 -31.898438 122.363281 -34.554688 125.875 -38.109375 C 129.382812 -41.671875 131.140625 -46.128906 131.140625 -51.484375 C 131.140625 -56.304688 129.710938 -60.253906 126.859375 -63.328125 C 124.015625 -66.398438 120.175781 -68.898438 115.34375 -70.828125 C 110.519531 -72.765625 105.035156 -74.347656 98.890625 -75.578125 L 65.96875 -82.296875 C 51.570312 -85.015625 40.160156 -90.738281 31.734375 -99.46875 C 23.304688 -108.207031 18.960938 -119.863281 18.703125 -134.4375 C 18.609375 -146.375 21.785156 -156.707031 28.234375 -165.4375 C 34.691406 -174.175781 43.472656 -180.914062 54.578125 -185.65625 C 65.679688 -190.394531 78.125 -192.765625 91.90625 -192.765625 C 108.320312 -192.765625 122.125 -190.195312 133.3125 -185.0625 C 144.507812 -179.925781 153.023438 -172.988281 158.859375 -164.25 C 164.703125 -155.519531 167.707031 -145.800781 167.875 -135.09375 L 129.296875 -135.09375 C 128.597656 -141.769531 126.578125 -147.082031 123.234375 -151.03125 C 119.898438 -154.976562 115.625 -157.828125 110.40625 -159.578125 C 105.1875 -161.335938 99.238281 -162.21875 92.5625 -162.21875 C 87.46875 -162.21875 82.835938 -161.644531 78.671875 -160.5 C 74.503906 -159.363281 70.972656 -157.765625 68.078125 -155.703125 C 65.179688 -153.640625 62.941406 -151.203125 61.359375 -148.390625 C 59.773438 -145.585938 58.984375 -142.425781 58.984375 -138.90625 C 58.984375 -133.382812 60.828125 -128.910156 64.515625 -125.484375 C 68.203125 -122.054688 75.09375 -119.25 85.1875 -117.0625 L 117.84375 -110.34375 C 129.519531 -108.0625 138.800781 -104.679688 145.6875 -100.203125 C 152.582031 -95.722656 157.765625 -90.675781 161.234375 -85.0625 C 164.703125 -79.445312 166.984375 -73.71875 168.078125 -67.875 C 169.171875 -62.039062 169.71875 -56.664062 169.71875 -51.75 C 169.71875 -41.476562 166.492188 -32.238281 160.046875 -24.03125 C 153.597656 -15.820312 144.625 -9.320312 133.125 -4.53125 C 121.625 0.25 108.191406 2.640625 92.828125 2.640625 Z M 92.828125 2.640625 "/></g></g></g><g fill="#000000" fill-opacity="1"><g transform="translate(248.825712, 500.411832)"><g><path d="M 55.953125 2.640625 C 47.265625 2.640625 39.453125 1.015625 32.515625 -2.234375 C 25.585938 -5.484375 20.101562 -10.203125 16.0625 -16.390625 C 12.019531 -22.578125 10 -30.101562 10 -38.96875 C 10 -53.894531 15.570312 -65.242188 26.71875 -73.015625 C 37.875 -80.785156 55.476562 -84.800781 79.53125 -85.0625 L 96.515625 -85.328125 L 96.515625 -93.484375 C 96.515625 -99.710938 94.691406 -104.515625 91.046875 -107.890625 C 87.410156 -111.273438 81.769531 -112.925781 74.125 -112.84375 C 68.507812 -112.757812 63.175781 -111.441406 58.125 -108.890625 C 53.082031 -106.347656 49.640625 -101.914062 47.796875 -95.59375 L 15.796875 -95.59375 C 16.328125 -105.425781 19.179688 -113.523438 24.359375 -119.890625 C 29.535156 -126.253906 36.578125 -130.992188 45.484375 -134.109375 C 54.398438 -137.222656 64.519531 -138.78125 75.84375 -138.78125 C 89.800781 -138.78125 100.992188 -137.046875 109.421875 -133.578125 C 117.847656 -130.109375 123.945312 -125.148438 127.71875 -118.703125 C 131.5 -112.253906 133.390625 -104.59375 133.390625 -95.71875 L 133.390625 0 L 101.25 0 L 98.09375 -23.4375 C 93.4375 -13.601562 87.617188 -6.796875 80.640625 -3.015625 C 73.671875 0.753906 65.441406 2.640625 55.953125 2.640625 Z M 68.859375 -22.640625 C 72.367188 -22.640625 75.769531 -23.273438 79.0625 -24.546875 C 82.351562 -25.828125 85.296875 -27.539062 87.890625 -29.6875 C 90.484375 -31.84375 92.566406 -34.28125 94.140625 -37 C 95.722656 -39.71875 96.515625 -42.523438 96.515625 -45.421875 L 96.515625 -65.578125 L 82.6875 -65.3125 C 76.28125 -65.21875 70.3125 -64.445312 64.78125 -63 C 59.25 -61.550781 54.789062 -59.203125 51.40625 -55.953125 C 48.03125 -52.710938 46.34375 -48.328125 46.34375 -42.796875 C 46.34375 -36.472656 48.535156 -31.53125 52.921875 -27.96875 C 57.316406 -24.414062 62.628906 -22.640625 68.859375 -22.640625 Z M 68.859375 -22.640625 "/></g></g></g><g fill="#8c52ff" fill-opacity="1"><g transform="translate(399.861799, 500.411832)"><g><path d="M 146.28125 -190.390625 L 184.734375 -190.390625 L 184.734375 0 L 150.109375 0 L 59.640625 -131.015625 L 59.640625 0 L 21.328125 0 L 21.328125 -190.390625 L 59.390625 -190.390625 L 146.28125 -64.390625 Z M 146.28125 -190.390625 "/></g></g></g><g fill="#8c52ff" fill-opacity="1"><g transform="translate(605.799939, 500.411832)"><g><path d="M 70.3125 2.640625 C 60.832031 2.640625 51.703125 1.082031 42.921875 -2.03125 C 34.148438 -5.15625 26.734375 -10.070312 20.671875 -16.78125 C 14.617188 -23.5 10.753906 -32.210938 9.078125 -42.921875 L 42.390625 -42.921875 C 43.535156 -38.097656 45.625 -34.28125 48.65625 -31.46875 C 51.6875 -28.65625 55.128906 -26.65625 58.984375 -25.46875 C 62.847656 -24.289062 66.535156 -23.703125 70.046875 -23.703125 C 77.421875 -23.703125 83.367188 -24.863281 87.890625 -27.1875 C 92.410156 -29.507812 94.671875 -33.085938 94.671875 -37.921875 C 94.671875 -41.609375 93.332031 -44.546875 90.65625 -46.734375 C 87.976562 -48.929688 83.566406 -50.601562 77.421875 -51.75 L 53.453125 -56.75 C 41.429688 -59.289062 31.773438 -63.613281 24.484375 -69.71875 C 17.203125 -75.820312 13.472656 -84.488281 13.296875 -95.71875 C 13.296875 -103.882812 15.46875 -111.210938 19.8125 -117.703125 C 24.15625 -124.203125 30.582031 -129.335938 39.09375 -133.109375 C 47.613281 -136.890625 58.0625 -138.78125 70.4375 -138.78125 C 87.207031 -138.78125 100.617188 -135.09375 110.671875 -127.71875 C 120.722656 -120.34375 125.835938 -109.941406 126.015625 -96.515625 L 93.875 -96.515625 C 92.914062 -101.785156 90.304688 -105.84375 86.046875 -108.6875 C 81.785156 -111.539062 76.453125 -112.96875 70.046875 -112.96875 C 63.378906 -112.96875 57.894531 -111.78125 53.59375 -109.40625 C 49.289062 -107.039062 47.140625 -103.445312 47.140625 -98.625 C 47.140625 -95.019531 48.894531 -92.1875 52.40625 -90.125 C 55.914062 -88.0625 61.359375 -86.285156 68.734375 -84.796875 L 90.859375 -79.796875 C 98.492188 -77.953125 104.703125 -75.425781 109.484375 -72.21875 C 114.265625 -69.019531 117.972656 -65.53125 120.609375 -61.75 C 123.242188 -57.976562 125.066406 -54.179688 126.078125 -50.359375 C 127.085938 -46.546875 127.59375 -43.101562 127.59375 -40.03125 C 127.59375 -30.988281 125.175781 -23.285156 120.34375 -16.921875 C 115.519531 -10.554688 108.804688 -5.703125 100.203125 -2.359375 C 91.597656 0.972656 81.632812 2.640625 70.3125 2.640625 Z M 70.3125 2.640625 "/></g></g></g></svg>
